<svg xmlns="http://www.w3.org/2000/svg" viewBox="0 0 1280 640" width="1280" height="640">
  <defs>
    <linearGradient id="bg" x1="0%" y1="0%" x2="100%" y2="100%">
      <stop offset="0%" style="stop-color:#0b100e"/>
      <stop offset="100%" style="stop-color:#0b100e"/>
    </linearGradient>
    <linearGradient id="shieldGrad" x1="0%" y1="0%" x2="100%" y2="100%">
      <stop offset="0%" style="stop-color:#121814"/>
      <stop offset="100%" style="stop-color:#18211b"/>
    </linearGradient>
    <linearGradient id="mintGrad" x1="0%" y1="0%" x2="100%" y2="100%">
      <stop offset="0%" style="stop-color:#c8f4ad"/>
      <stop offset="100%" style="stop-color:#a9dd8f"/>
    </linearGradient>
    <linearGradient id="shieldInner" x1="0%" y1="0%" x2="0%" y2="100%">
      <stop offset="0%" style="stop-color:#18211b"/>
      <stop offset="100%" style="stop-color:#121814"/>
    </linearGradient>
    <!-- Subtle grid overlay -->
    <pattern id="grid" width="60" height="60" patternUnits="userSpaceOnUse">
      <path d="M 60 0 L 0 0 0 60" fill="none" stroke="#18211b" stroke-width="0.5"/>
    </pattern>
    <filter id="softGlow" x="-30%" y="-30%" width="160%" height="160%">
      <feGaussianBlur stdDeviation="6" result="coloredBlur"/>
      <feMerge>
        <feMergeNode in="coloredBlur"/>
        <feMergeNode in="SourceGraphic"/>
      </feMerge>
    </filter>
    <filter id="shieldGlow" x="-20%" y="-20%" width="140%" height="140%">
      <feGaussianBlur stdDeviation="10" result="coloredBlur"/>
      <feMerge>
        <feMergeNode in="coloredBlur"/>
        <feMergeNode in="SourceGraphic"/>
      </feMerge>
    </filter>
    <filter id="checkGlow" x="-40%" y="-40%" width="180%" height="180%">
      <feGaussianBlur stdDeviation="8" result="coloredBlur"/>
      <feMerge>
        <feMergeNode in="coloredBlur"/>
        <feMergeNode in="SourceGraphic"/>
      </feMerge>
    </filter>
  </defs>

  <!-- Background -->
  <rect width="1280" height="640" fill="url(#bg)"/>
  <!-- Grid overlay -->
  <rect width="1280" height="640" fill="url(#grid)" opacity="0.6"/>

  <!-- Mint glow blobs (ambient light) -->
  <circle cx="900" cy="320" r="300" fill="#a9dd8f" opacity="0.04"/>
  <circle cx="200" cy="500" r="200" fill="#e7c899" opacity="0.04"/>

  <!-- Top border accent line -->
  <line x1="0" y1="0" x2="1280" y2="0" stroke="#c8f4ad" stroke-width="3" opacity="0.6"/>

  <!-- ── LARGE SHIELD MARK (right side) ── -->
  <!-- Shield scaled 2.5x from 120px viewBox = 300px, centered at x=980, y=320 -->
  <g transform="translate(830, 90) scale(2.5)" filter="url(#shieldGlow)">
    <path d="M60 8 L100 24 L100 62 Q100 90 60 112 Q20 90 20 62 L20 24 Z"
          fill="url(#shieldGrad)"
          stroke="#c8f4ad"
          stroke-width="2"
          stroke-linejoin="round"/>
    <path d="M60 14 L94 28 L94 62 Q94 86 60 106 Q26 86 26 62 L26 28 Z"
          fill="url(#shieldInner)"
          opacity="0.7"/>
    <path d="M60 8 L100 24" stroke="#c8f4ad" stroke-width="0.8" opacity="0.5" fill="none"/>
    <path d="M60 8 L20 24" stroke="#c8f4ad" stroke-width="0.8" opacity="0.5" fill="none"/>
    <!-- Circuit traces -->
    <line x1="38" y1="60" x2="82" y2="60" stroke="#c8f4ad" stroke-width="1.2" opacity="0.4"/>
    <line x1="60" y1="42" x2="60" y2="78" stroke="#c8f4ad" stroke-width="1.2" opacity="0.4"/>
    <circle cx="38" cy="60" r="2.5" fill="#c8f4ad" opacity="0.5"/>
    <circle cx="82" cy="60" r="2.5" fill="#c8f4ad" opacity="0.5"/>
    <circle cx="60" cy="42" r="2.5" fill="#c8f4ad" opacity="0.5"/>
    <circle cx="60" cy="78" r="2.5" fill="#c8f4ad" opacity="0.5"/>
    <line x1="38" y1="60" x2="38" y2="50" stroke="#c8f4ad" stroke-width="0.8" opacity="0.3"/>
    <line x1="82" y1="60" x2="82" y2="70" stroke="#c8f4ad" stroke-width="0.8" opacity="0.3"/>
    <line x1="60" y1="42" x2="70" y2="42" stroke="#c8f4ad" stroke-width="0.8" opacity="0.3"/>
    <line x1="60" y1="78" x2="50" y2="78" stroke="#c8f4ad" stroke-width="0.8" opacity="0.3"/>
    <!-- Checkmark -->
    <polyline points="44,60 56,72 76,48"
              fill="none"
              stroke="url(#mintGrad)"
              stroke-width="5.5"
              stroke-linecap="round"
              stroke-linejoin="round"
              filter="url(#checkGlow)"/>
  </g>

  <!-- ── LEFT TEXT BLOCK ── -->

  <!-- "Guard" -->
  <text x="88" y="258"
        font-family="-apple-system, BlinkMacSystemFont, 'Segoe UI', Arial, sans-serif"
        font-size="112"
        font-weight="800"
        letter-spacing="-3"
        fill="#eff3eb">Guard</text>

  <!-- "Meter" in mint -->
  <text x="88" y="378"
        font-family="-apple-system, BlinkMacSystemFont, 'Segoe UI', Arial, sans-serif"
        font-size="112"
        font-weight="800"
        letter-spacing="-3"
        fill="#c8f4ad"
        filter="url(#softGlow)">Meter</text>

  <!-- Divider line -->
  <line x1="88" y1="412" x2="560" y2="412" stroke="#18211b" stroke-width="1.5"/>

  <!-- Tagline -->
  <text x="88" y="448"
        font-family="-apple-system, BlinkMacSystemFont, 'Segoe UI', Arial, sans-serif"
        font-size="22"
        font-weight="400"
        letter-spacing="4"
        fill="#a0aba3"
        opacity="0.75">AI SAFETY GUARD EVALUATION</text>

  <!-- Feature pills row -->
  <!-- Pill 1 -->
  <rect x="88" y="480" width="170" height="34" rx="17" fill="#121814" stroke="#c8f4ad" stroke-width="1" opacity="0.8"/>
  <text x="173" y="502" text-anchor="middle"
        font-family="-apple-system, BlinkMacSystemFont, 'Segoe UI', Arial, sans-serif"
        font-size="13" font-weight="500" fill="#c8f4ad">pip install guardmeter</text>

  <!-- Pill 2 -->
  <rect x="270" y="480" width="118" height="34" rx="17" fill="#121814" stroke="#18211b" stroke-width="1" opacity="0.8"/>
  <text x="329" y="502" text-anchor="middle"
        font-family="-apple-system, BlinkMacSystemFont, 'Segoe UI', Arial, sans-serif"
        font-size="13" font-weight="500" fill="#a0aba3">Open Source</text>

  <!-- Pill 3 -->
  <rect x="400" y="480" width="98" height="34" rx="17" fill="#121814" stroke="#18211b" stroke-width="1" opacity="0.8"/>
  <text x="449" y="502" text-anchor="middle"
        font-family="-apple-system, BlinkMacSystemFont, 'Segoe UI', Arial, sans-serif"
        font-size="13" font-weight="500" fill="#a0aba3">MIT License</text>

  <!-- Bottom border accent -->
  <line x1="0" y1="640" x2="1280" y2="640" stroke="#c8f4ad" stroke-width="2" opacity="0.3"/>

  <!-- github.com/samvardani/guardmeter -->
  <text x="88" y="626"
        font-family="-apple-system, BlinkMacSystemFont, 'Segoe UI', Arial, sans-serif"
        font-size="15" font-weight="400" letter-spacing="0.5"
        fill="#a0aba3">github.com/samvardani/guardmeter</text>
</svg>
